<svg version="1.1" viewBox="0.0 0.0 1362.7821522309712 444.5223097112861" fill="none" stroke="none" stroke-linecap="square" stroke-miterlimit="10" xmlns:xlink="http://www.w3.org/1999/xlink" xmlns="http://www.w3.org/2000/svg"><clipPath id="p.0"><path d="m0 0l1362.7821 0l0 444.5223l-1362.7821 0l0 -444.5223z" clip-rule="nonzero"/></clipPath><g clip-path="url(#p.0)"><path fill="#000000" fill-opacity="0.0" d="m0 0l1362.7821 0l0 444.5223l-1362.7821 0z" fill-rule="evenodd"/><path fill="#000000" d="m1276.0604 327.97507l65.95276 0l0 57.66928l-65.95276 0z" fill-rule="evenodd"/><path fill="#000000" d="m1256.706 329.56238l52.33069 -42.11026l52.33069 42.11026z" fill-rule="evenodd"/><path fill="#000000" d="m732.3858 296.62204l99.87402 0l0 107.46457l-99.87402 0z" fill-rule="evenodd"/><path fill="#000000" d="m685.2861 271.75067l80.787415 0l0 107.46454l-80.787415 0z" fill-rule="evenodd"/><path fill="#000000" d="m894.51184 316.24933l104.66138 0l0 72.59845l-104.66138 0z" fill-rule="evenodd"/><path fill="#000000" d="m285.76904 331.16534l104.66141 0l0 57.66931l-104.66141 0z" fill-rule="evenodd"/><path fill="#6d9eeb" d="m-97.35696 481.11548l0 0c0 -59.203186 162.20688 -107.19684 362.29922 -107.19684l0 0c200.09232 0 362.2992 47.993652 362.2992 107.19684l0 0c0 59.203186 -162.20688 107.19684 -362.2992 107.19684l0 0c-200.09233 0 -362.29922 -47.993652 -362.29922 -107.19684z" fill-rule="evenodd"/><path fill="#6d9eeb" d="m299.22308 474.15747l0 0c0 -72.223175 184.67023 -130.77164 412.47247 -130.77164l0 0c227.80225 0 412.4724 58.548462 412.4724 130.77164l0 0c0 72.223206 -184.67017 130.77167 -412.4724 130.77167l0 0c-227.80225 0 -412.47247 -58.548462 -412.47247 -130.77167z" fill-rule="evenodd"/><path fill="#6d9eeb" d="m939.4908 481.11548l0 0c0 -59.203186 162.20697 -107.19684 362.29926 -107.19684l0 0c200.09229 0 362.2992 47.993652 362.2992 107.19684l0 0c0 59.203186 -162.20691 107.19684 -362.2992 107.19684l0 0c-200.09229 0 -362.29926 -47.993652 -362.29926 -107.19684z" fill-rule="evenodd"/><path fill="#000000" d="m146.51181 343.38583l104.66142 0l0 57.66928l-104.66142 0z" fill-rule="evenodd"/><path fill="#000000" d="m492.46457 316.24933l104.66141 0l0 57.66931l-104.66141 0z" fill-rule="evenodd"/><path fill="#000000" d="m1087.2546 343.38583l104.66138 0l0 72.59842l-104.66138 0z" fill-rule="evenodd"/><path fill="#000000" d="m128.93701 349.21466l69.9055 -42.11023l69.9055 42.11023z" fill-rule="evenodd"/><path fill="#000000" d="m268.1942 332.75266l69.90552 -42.11023l69.90552 42.11023z" fill-rule="evenodd"/><path fill="#000000" d="m474.88977 323.50656l69.90552 -42.11023l69.90552 42.11023z" fill-rule="evenodd"/><path fill="#000000" d="m871.22107 323.50656l75.62201 -42.11023l75.62207 42.11023z" fill-rule="evenodd"/><path fill="#000000" d="m1069.6785 349.3832l69.90552 -57.66931l69.90552 57.66931z" fill-rule="evenodd"/><path fill="#000000" d="m685.2861 273.41406l40.393738 -72.59842l40.393677 72.59842z" fill-rule="evenodd"/><path fill="#bf9000" d="m160.82414 360.82416l22.897644 0l0 22.897614l-22.897644 0z" fill-rule="evenodd"/><path fill="#bf9000" d="m212.90552 360.82416l22.897629 0l0 22.897614l-22.897629 0z" fill-rule="evenodd"/><path fill="#bf9000" d="m307.22308 341.88715l22.897644 0l0 22.897644l-22.897644 0z" fill-rule="evenodd"/><path fill="#bf9000" d="m561.3937 337.2638l22.897644 0l0 22.897614l-22.897644 0z" fill-rule="evenodd"/><path fill="#bf9000" d="m504.76642 337.26248l22.897644 0l0 22.897614l-22.897644 0z" fill-rule="evenodd"/><path fill="#bf9000" d="m787.2223 316.71127l22.897644 0l0 22.897644l-22.897644 0z" fill-rule="evenodd"/><path fill="#a64d79" d="m711.75854 277.79266l0 0c0 -7.688507 6.232727 -13.921265 13.921265 -13.921265l0 0c3.6921387 0 7.233032 1.4667053 9.843811 4.077423c2.6107178 2.6107483 4.0774536 6.1516724 4.0774536 9.843842l0 0c0 7.6884766 -6.232788 13.921234 -13.921265 13.921234l0 0c-7.6885376 0 -13.921265 -6.2327576 -13.921265 -13.921234z" fill-rule="evenodd"/><path fill="#bf9000" d="m955.79974 337.2638l22.897644 0l0 22.897614l-22.897644 0z" fill-rule="evenodd"/><path fill="#bf9000" d="m1101.2695 369.7936l22.897705 0l0 22.897644l-22.897705 0z" fill-rule="evenodd"/><path fill="#bf9000" d="m1156.8733 369.7936l22.897583 0l0 22.897644l-22.897583 0z" fill-rule="evenodd"/><path fill="#bf9000" d="m1297.5872 338.0351l22.897583 0l0 22.897614l-22.897583 0z" fill-rule="evenodd"/></g></svg>